<svg width="23" height="23" viewBox="0 0 23 23" fill="none" xmlns="http://www.w3.org/2000/svg">
<path fill-rule="evenodd" clip-rule="evenodd" d="M1.4375 11.5C1.4375 17.0574 5.94264 21.5625 11.5 21.5625C17.0574 21.5625 21.5625 17.0574 21.5625 11.5C21.5625 5.94264 17.0574 1.4375 11.5 1.4375C5.94264 1.4375 1.4375 5.94264 1.4375 11.5ZM23 11.5C23 17.8513 17.8513 23 11.5 23C5.14873 23 0 17.8513 0 11.5C0 5.14873 5.14873 0 11.5 0C17.8513 0 23 5.14873 23 11.5ZM8.20397 10.7812H16.5312C16.9282 10.7812 17.25 11.103 17.25 11.5C17.25 11.897 16.9282 12.2187 16.5312 12.2187H8.20397L11.2895 15.3043C11.5702 15.585 11.5702 16.04 11.2895 16.3207C11.0088 16.6014 10.5537 16.6014 10.273 16.3207L5.96052 12.0082C5.67983 11.7275 5.67983 11.2725 5.96052 10.9918L10.273 6.67927C10.5537 6.39858 11.0088 6.39858 11.2895 6.67927C11.5702 6.95996 11.5702 7.41504 11.2895 7.69573L8.20397 10.7812Z" fill="black"/>
</svg>
